fd_3_states
version=1
nRows=23
nColumns=17
inDegrees=yes

# SIMM Motion File Header:
name fd_3_states
datacolumns 17
datarows 23
otherdata 1
range 0.410756 0.418087
endheader
time	/jointset/r_shoulder/r_shoulder_elev/value	/jointset/r_shoulder/r_shoulder_elev/speed	/jointset/r_elbow/r_elbow_flex/value	/jointset/r_elbow/r_elbow_flex/speed	/forceset/TRIlong/activation	/forceset/TRIlong/fiber_length	/forceset/TRIlat/activation	/forceset/TRIlat/fiber_length	/forceset/TRImed/activation	/forceset/TRImed/fiber_length	/forceset/BIClong/activation	/forceset/BIClong/fiber_length	/forceset/BICshort/activation	/forceset/BICshort/fiber_length	/forceset/BRA/activation	/forceset/BRA/fiber_length
      0.410756	    -14.528326	    330.440688	    183.887134	    126.021241	      0.020763	      0.170837	      0.238873	      0.113665	      0.236145	      0.108682	      0.991389	      0.058366	      0.561615	      0.056817	      0.021168	      0.039294
      0.411103	    -14.413468	    331.455015	    183.930503	    123.909238	      0.020760	      0.170972	      0.239516	      0.113653	      0.236790	      0.108670	      0.991538	      0.058355	      0.572735	      0.056794	      0.021163	      0.039292
      0.411450	    -14.298252	    332.496800	    183.973138	    121.790812	      0.020756	      0.170979	      0.240133	      0.113641	      0.237410	      0.108658	      0.991685	      0.058343	      0.583444	      0.056770	      0.021157	      0.039291
      0.411785	    -14.186467	    333.472192	    184.013683	    119.759820	      0.020753	      0.171015	      0.240706	      0.113629	      0.237985	      0.108647	      0.991824	      0.058331	      0.593436	      0.056745	      0.021152	      0.039289
      0.412158	    -14.062003	    334.537138	    184.057891	    117.517747	      0.020749	      0.171133	      0.241315	      0.113617	      0.238596	      0.108635	      0.991976	      0.058318	      0.604129	      0.056716	      0.021146	      0.039287
      0.412531	    -13.937140	    335.617443	    184.101264	    115.274000	      0.020745	      0.171152	      0.241898	      0.113604	      0.239182	      0.108622	      0.992125	      0.058304	      0.614425	      0.056685	      0.021141	      0.039286
      0.412833	    -13.835425	    336.474601	    184.135881	    113.463297	      0.020742	      0.171196	      0.242354	      0.113594	      0.239638	      0.108612	      0.992244	      0.058292	      0.622513	      0.056660	      0.021136	      0.039284
      0.413211	    -13.707964	    337.531617	    184.178368	    111.210559	      0.020739	      0.171318	      0.242900	      0.113582	      0.240186	      0.108600	      0.992390	      0.058277	      0.632291	      0.056627	      0.021130	      0.039283
      0.413590	    -13.580101	    338.604655	    184.220002	    108.955243	      0.020735	      0.171337	      0.243422	      0.113570	      0.240710	      0.108588	      0.992533	      0.058262	      0.641723	      0.056593	      0.021125	      0.039281
      0.413885	    -13.480000	    339.422788	    184.251915	    107.205465	      0.020732	      0.171382	      0.243814	      0.113560	      0.241103	      0.108579	      0.992643	      0.058249	      0.648858	      0.056566	      0.021120	      0.039280
      0.414246	    -13.357394	    340.409773	    184.290199	    105.076315	      0.020729	      0.171490	      0.244275	      0.113549	      0.241564	      0.108568	      0.992776	      0.058234	      0.657314	      0.056532	      0.021115	      0.039279
      0.414606	    -13.234429	    341.406624	    184.327715	    102.946387	      0.020725	      0.171515	      0.244716	      0.113538	      0.242007	      0.108557	      0.992905	      0.058217	      0.665498	      0.056498	      0.021110	      0.039277
      0.414905	    -13.132410	    342.215831	    184.358179	    101.192912	      0.020722	      0.171565	      0.245068	      0.113529	      0.242359	      0.108548	      0.993011	      0.058204	      0.672075	      0.056469	      0.021105	      0.039276
      0.415274	    -13.005974	    343.202813	    184.395113	     99.034050	      0.020719	      0.171700	      0.245486	      0.113518	      0.242778	      0.108537	      0.993140	      0.058187	      0.679968	      0.056433	      0.021100	      0.039275
      0.415643	    -12.879170	    344.214682	    184.431249	     96.868144	      0.020715	      0.171712	      0.245886	      0.113507	      0.243178	      0.108527	      0.993266	      0.058169	      0.687614	      0.056397	      0.021094	      0.039273
      0.415933	    -12.779187	    344.986042	    184.459109	     95.177247	      0.020713	      0.171753	      0.246189	      0.113498	      0.243482	      0.108518	      0.993363	      0.058155	      0.693460	      0.056368	      0.021090	      0.039272
      0.416251	    -12.669128	    345.820952	    184.489141	     93.327717	      0.020710	      0.171864	      0.246509	      0.113489	      0.243803	      0.108509	      0.993468	      0.058138	      0.699718	      0.056336	      0.021086	      0.039271
      0.416570	    -12.558800	    346.671107	    184.518583	     91.474339	      0.020707	      0.171880	      0.246819	      0.113480	      0.244112	      0.108501	      0.993572	      0.058122	      0.705812	      0.056304	      0.021081	      0.039270
      0.416838	    -12.465868	    347.368560	    184.542872	     89.925677	      0.020704	      0.171922	      0.247070	      0.113473	      0.244364	      0.108493	      0.993658	      0.058108	      0.710811	      0.056277	      0.021077	      0.039269
      0.417165	    -12.352232	    348.208377	    184.571946	     88.043236	      0.020701	      0.172026	      0.247366	      0.113464	      0.244660	      0.108485	      0.993761	      0.058090	      0.716764	      0.056244	      0.021073	      0.039268
      0.417491	    -12.238321	    349.057751	    184.600405	     86.159552	      0.020698	      0.172049	      0.247651	      0.113455	      0.244945	      0.108476	      0.993863	      0.058073	      0.722563	      0.056211	      0.021068	      0.039267
      0.417760	    -12.144339	    349.743300	    184.623373	     84.616589	      0.020695	      0.172097	      0.247877	      0.113448	      0.245172	      0.108469	      0.993945	      0.058058	      0.727225	      0.056184	      0.021064	      0.039267
      0.418087	    -12.029948	    350.565323	    184.650710	     82.749553	      0.020692	      0.172204	      0.248143	      0.113439	      0.245438	      0.108461	      0.994044	      0.058039	      0.732755	      0.056151	      0.021059	      0.039266
